<?xml version="1.0" encoding="UTF-8"?>
<svg width="60px" height="50px" viewBox="0 0 60 50" version="1.1" xmlns="http://www.w3.org/2000/svg" xmlns:xlink="http://www.w3.org/1999/xlink">
    <!-- Generator: Sketch 63.1 (92452) - https://sketch.com -->
    <title>Icon / Social/ Twitter</title>
    <desc>Created with Sketch.</desc>
    <g id="2.-Style-guide" stroke="none" stroke-width="1" fill="none" fill-rule="evenodd">
        <g id="Icons" transform="translate(-124.000000, -773.000000)" fill="#1F5788">
            <g id="Icon-/-Social/-Twitter" transform="translate(124.000000, 768.000000)">
                <path d="M29.1334237,18.3007829 L29.2634836,20.4634239 L27.0958182,20.1986107 C19.2055159,19.1834935 12.3123398,15.7409221 6.45964305,9.95916759 L3.59832465,7.09035809 L2.8613184,9.20886356 C1.30059927,13.9313653 2.29772538,18.9186803 5.54922356,22.2729806 C7.28335593,24.1266729 6.89317614,24.3914861 3.90179782,23.2880978 C2.8613184,22.9350136 1.95089891,22.6702004 1.86419229,22.802607 C1.56071913,23.1115557 2.60119854,27.127889 3.42491142,28.7167681 C4.55209745,30.9235447 6.84982284,33.0861857 9.36431476,34.366116 L11.4886269,35.3812332 L8.97413498,35.4253688 C6.54634967,35.4253688 6.45964305,35.4695043 6.71976291,36.3963505 C7.58682909,39.2651599 11.0117405,42.3105116 14.8268317,43.6345775 L17.5147369,44.5614236 L15.1736582,45.9737606 C11.7053935,48.003995 7.6301824,49.1515188 3.55497134,49.2397899 C1.60407244,49.2839254 0,49.4604675 0,49.5928741 C0,50.0342294 5.28910371,52.5058191 8.36718865,53.4768008 C17.6014435,56.3456103 28.5698307,55.1098155 36.8069594,50.2107716 C42.6596561,46.7240646 48.5123529,39.7947863 51.2436113,33.0861857 C52.7176238,29.5112077 54.1916364,22.9791491 54.1916364,19.8455265 C54.1916364,17.815292 54.3216963,17.5504789 56.7494816,15.1230247 C58.1801408,13.7106877 59.5240934,12.1659441 59.7842132,11.7245888 C60.2177463,10.8860137 60.174393,10.8860137 57.9633742,11.6363178 C54.278343,12.9603837 53.7581033,12.7838415 55.5789422,10.7977427 C56.9228948,9.38540569 58.5269673,6.82554491 58.5269673,6.07524089 C58.5269673,5.94283429 57.8766676,6.16351195 57.1396614,6.56073172 C56.3593018,7.00208703 54.6251694,7.66411999 53.3245702,8.06133977 L50.9834915,8.81164379 L48.8591793,7.35517128 C47.68864,6.56073172 46.0412142,5.67802111 45.1741481,5.41320793 C42.9631293,4.7953105 39.5815712,4.88358156 37.587319,5.58975005 C32.1681553,7.57584893 28.7432439,12.6955705 29.1334237,18.3007829 Z"></path>
            </g>
        </g>
    </g>
</svg>